<?xml version="1.0" standalone="no"?>
<!DOCTYPE svg PUBLIC "-//W3C//DTD SVG 20010904//EN"
 "http://www.w3.org/TR/2001/REC-SVG-20010904/DTD/svg10.dtd">
<svg version="1.0" xmlns="http://www.w3.org/2000/svg"
 width="567.000000pt" height="361.000000pt" viewBox="0 0 567.000000 361.000000"
 preserveAspectRatio="xMidYMid meet">

<g transform="translate(0.000000,361.000000) scale(0.100000,-0.100000)"
fill="#000000" stroke="none">
<path d="M2328 3600 c-299 -32 -523 -119 -674 -262 -80 -76 -130 -161 -139
-233 -5 -34 -3 -31 10 15 22 78 70 153 138 216 60 56 199 144 227 144 9 0 22
6 29 13 11 10 12 8 7 -8 -3 -11 -32 -130 -65 -264 -39 -164 -64 -247 -74 -253
-99 -55 -133 -156 -84 -249 21 -39 22 -49 12 -88 l-11 -45 -47 60 c-90 113
-134 218 -147 349 l-7 70 -2 -87 c0 -48 4 -110 10 -138 9 -44 8 -64 -11 -138
-54 -211 16 -402 224 -608 323 -319 917 -532 1426 -511 165 7 281 27 397 68
48 18 102 31 119 31 43 -1 92 -28 106 -58 16 -34 -7 -54 -102 -88 -177 -64
-237 -130 -318 -356 -49 -136 -55 -166 -41 -208 23 -69 190 -222 305 -280 46
-23 173 -57 251 -68 l52 -6 10 38 c5 22 17 66 25 99 8 33 17 69 21 80 5 18 -2
22 -82 37 -176 34 -380 164 -413 263 -13 39 -13 39 25 72 36 31 129 72 211 93
64 16 81 43 113 176 44 178 53 255 40 310 -11 43 -10 47 21 91 52 71 79 149
80 220 l0 62 83 83 c116 115 157 208 157 353 0 68 -31 188 -68 262 -155 306
-590 577 -1112 693 -217 48 -516 69 -702 50z m266 -266 c3 -9 6 -23 6 -32 -1
-12 -5 -10 -15 8 -8 14 -14 28 -15 33 0 13 18 7 24 -9z m461 -375 c29 -30 29
-30 -24 5 -29 20 -59 36 -67 36 -8 0 -14 5 -14 10 0 17 73 -18 105 -51z
m-1180 11 c3 -5 -17 -21 -44 -35 -28 -14 -66 -39 -86 -56 -19 -17 -35 -28 -35
-24 0 18 48 70 88 96 48 31 67 35 77 19z m576 -113 c12 -22 12 -22 -10 -3 -11
11 -21 23 -21 28 0 14 19 -1 31 -25z m-912 -177 c2 -129 83 -293 238 -483 31
-37 53 -70 49 -74 -11 -12 -172 162 -218 237 -75 122 -109 252 -93 357 6 38 9
44 16 28 4 -11 8 -40 8 -65z m200 -203 c34 -32 61 -63 61 -69 0 -19 -33 -118
-39 -118 -10 0 -119 172 -141 222 -11 25 -23 68 -27 95 l-6 48 45 -60 c25 -33
73 -86 107 -118z m163 -129 c27 -18 48 -38 48 -44 0 -17 -39 -127 -49 -137 -4
-4 -30 12 -56 36 l-48 43 24 67 c13 37 26 67 29 67 2 0 26 -15 52 -32z m160
-99 c26 -17 48 -34 48 -37 0 -17 -56 -152 -63 -152 -12 0 -96 50 -103 61 -8
13 46 159 59 159 6 0 32 -14 59 -31z m176 -84 c29 -9 56 -23 59 -31 3 -7 -7
-49 -22 -93 l-26 -80 -37 16 c-20 8 -53 24 -74 34 l-36 18 30 81 c17 45 36 79
42 77 6 -2 35 -12 64 -22z m217 -76 c30 -11 55 -26 55 -32 0 -15 -45 -155 -51
-161 -5 -6 -145 37 -155 46 -3 3 7 45 21 93 30 98 22 95 130 54z m194 -60 c42
-12 79 -24 83 -27 6 -6 -26 -159 -35 -169 -4 -3 -177 36 -185 42 -3 3 38 156
45 168 6 10 7 10 92 -14z m249 -60 c34 -6 62 -16 61 -23 0 -6 -6 -42 -12 -81
-14 -82 -18 -83 -128 -65 -76 13 -75 11 -59 92 22 107 18 101 48 94 15 -3 55
-10 90 -17z m232 -17 l35 -7 -8 -81 -9 -82 -45 -6 c-25 -3 -63 -3 -84 0 -45 7
-45 9 -28 115 l12 69 46 -1 c25 0 62 -3 81 -7z m248 -8 c2 -1 1 -41 -3 -88
l-7 -86 -85 0 -84 0 7 78 c10 111 9 110 96 104 40 -2 75 -6 76 -8z m191 -16
l43 -11 -6 -71 c-11 -111 -10 -109 -70 -102 -28 4 -66 9 -85 13 l-34 6 7 85
c4 48 10 90 13 95 5 9 56 3 132 -15z m198 -69 c59 -36 65 -53 46 -134 -8 -39
-17 -72 -19 -74 -1 -1 -13 6 -25 18 -13 12 -46 29 -74 37 l-51 17 8 61 c15
110 15 109 50 102 17 -3 46 -16 65 -27z m-21 -376 c-25 -141 -24 -139 -67
-152 -23 -7 -43 -10 -46 -7 -3 3 -2 37 2 76 l7 71 52 24 c28 13 53 24 55 24 2
1 0 -16 -3 -36z m-161 -70 c-2 -16 -7 -49 -10 -75 -6 -43 -10 -49 -56 -77
l-49 -31 0 40 c0 56 20 99 64 138 45 39 57 40 51 5z m-160 -305 l26 -66 -25
-72 -24 -72 -36 48 c-43 59 -44 84 -9 189 21 63 28 75 34 60 4 -11 20 -50 34
-87z m154 -163 l79 -55 -9 -38 c-5 -20 -9 -56 -9 -79 0 -24 -3 -43 -6 -43 -13
0 -121 62 -152 88 -33 27 -33 28 -22 77 11 52 30 105 37 105 2 0 39 -25 82
-55z m193 -95 c29 -10 72 -24 96 -30 47 -12 48 -15 28 -100 l-13 -55 -42 3
c-23 1 -65 10 -94 20 l-52 17 2 60 c2 59 10 105 17 105 2 0 28 -9 58 -20z"/>
<path d="M4838 2463 c7 -3 16 -2 19 1 4 3 -2 6 -13 5 -11 0 -14 -3 -6 -6z"/>
<path d="M951 1733 c1 -108 56 -744 64 -752 6 -5 362 -221 793 -480 l783 -471
-2 554 -1 553 -30 32 c-16 17 -34 29 -39 25 -5 -3 -8 -1 -7 4 4 14 -42 73 -52
67 -4 -3 -16 2 -25 12 -13 13 -18 14 -25 3 -6 -9 -10 -7 -15 9 -3 12 -11 19
-16 16 -5 -4 -22 3 -38 14 -16 12 -36 19 -43 16 -8 -3 -21 1 -28 10 -7 8 -21
15 -31 15 -9 0 -24 6 -31 13 -18 16 5 14 -298 22 l-265 7 -50 28 c-52 29 -529
282 -602 319 l-43 21 1 -37z"/>
</g>
</svg>
